<svg xmlns="http://www.w3.org/2000/svg"  viewBox="0 0 24 24" width="50px" height="50px"><path d="M 10.75 0 L 10.75 1.25 L 10.75 1.75 L 10.75 3 L 13.25 3 L 13.25 1.75 L 13.25 1.25 L 13.25 0 L 10.75 0 z M 4.3984375 2.6308594 L 2.6308594 4.3984375 L 3.515625 5.2832031 L 3.8671875 5.6367188 L 4.7519531 6.5195312 L 6.5195312 4.7519531 L 5.6367188 3.8671875 L 5.2832031 3.515625 L 4.3984375 2.6308594 z M 19.601562 2.6308594 L 18.716797 3.515625 L 18.363281 3.8671875 L 17.480469 4.7519531 L 19.248047 6.5195312 L 20.132812 5.6367188 L 20.484375 5.2832031 L 21.369141 4.3984375 L 19.601562 2.6308594 z M 12 5 C 8.1488108 5 5 8.1488138 5 12 C 5 15.851186 8.1488108 19 12 19 C 15.851189 19 19 15.851186 19 12 C 19 8.1488138 15.851189 5 12 5 z M 12 7.5 C 14.50009 7.5 16.5 9.4999117 16.5 12 C 16.5 14.500088 14.50009 16.5 12 16.5 C 9.4999102 16.5 7.5 14.500088 7.5 12 C 7.5 9.4999117 9.4999102 7.5 12 7.5 z M 0 10.75 L 0 13.25 L 1.25 13.25 L 1.75 13.25 L 3 13.25 L 3 10.75 L 1.75 10.75 L 1.25 10.75 L 0 10.75 z M 21 10.75 L 21 13.25 L 22.25 13.25 L 22.75 13.25 L 24 13.25 L 24 10.75 L 22.75 10.75 L 22.25 10.75 L 21 10.75 z M 4.7519531 17.480469 L 3.8671875 18.363281 L 3.515625 18.716797 L 2.6308594 19.601562 L 4.3984375 21.369141 L 5.2832031 20.484375 L 5.6367188 20.132812 L 6.5195312 19.248047 L 4.7519531 17.480469 z M 19.248047 17.480469 L 17.480469 19.248047 L 18.363281 20.132812 L 18.716797 20.484375 L 19.601562 21.369141 L 21.369141 19.601562 L 20.484375 18.716797 L 20.132812 18.363281 L 19.248047 17.480469 z M 10.75 21 L 10.75 22.25 L 10.75 22.75 L 10.75 24 L 13.25 24 L 13.25 22.75 L 13.25 22.25 L 13.25 21 L 10.75 21 z"/></svg>