<?xml version="1.0" ?><!DOCTYPE svg  PUBLIC '-//W3C//DTD SVG 1.1//EN'  'http://www.w3.org/Graphics/SVG/1.1/DTD/svg11.dtd'><svg height="100%" style="fill-rule:evenodd;clip-rule:evenodd;stroke-linejoin:round;stroke-miterlimit:2;" version="1.1" viewBox="0 0 32 32" width="100%" xml:space="preserve" xmlns="http://www.w3.org/2000/svg" xmlns:serif="http://www.serif.com/" xmlns:xlink="http://www.w3.org/1999/xlink"><path d="M3.055,27.623c-0.151,0.373 -0.065,0.8 0.219,1.084c0.285,0.285 0.712,0.371 1.084,0.219l7.154,-2.911c0.31,-0.126 0.537,-0.399 0.603,-0.728c0.067,-0.328 -0.036,-0.668 -0.273,-0.905l-4.242,-4.243c-0.237,-0.237 -0.577,-0.339 -0.906,-0.273c-0.328,0.067 -0.601,0.293 -0.728,0.603l-2.911,7.154Z"/><path d="M20.254,6.107l-12.063,12.035c0.301,0.144 0.58,0.34 0.823,0.583c-0,0 4.243,4.243 4.243,4.243c0.245,0.245 0.443,0.528 0.588,0.834l12.066,-12.038l-5.657,-5.657Zm1.416,-1.413l5.657,5.657l0.742,-0.739c0.563,-0.563 0.88,-1.326 0.881,-2.123c0,-0.796 -0.316,-1.56 -0.879,-2.123c-0.455,-0.455 -0.959,-0.959 -1.414,-1.414c-1.171,-1.17 -3.068,-1.172 -4.24,-0.002l-0.747,0.744Z"/></svg>